<?xml version="1.0" encoding="iso-8859-1"?>
<!-- Uploaded to: SVG Repo, www.svgrepo.com, Generator: SVG Repo Mixer Tools -->
<svg version="1.1" id="Layer_1" xmlns="http://www.w3.org/2000/svg" xmlns:xlink="http://www.w3.org/1999/xlink" 
	 viewBox="0 0 508 508" xml:space="preserve">
<circle style="fill:#54C0EB;" cx="254" cy="254" r="254"/>
<path style="fill:#84DBFF;" d="M56,413.2c46.8,58,118,94.8,198,94.8s151.2-36.8,198-94.8H56z"/>
<g>
	<path style="fill:#F9B54C;" d="M314.4,202.4v42.8h-84c4.4-6,6.8-13.6,6.8-21.6s-2.4-15.2-6.8-21.6h84V202.4z"/>
	<path style="fill:#F9B54C;" d="M421.6,223.6c0,12-9.6,21.6-21.6,21.6h-6.8v-42.8h6.8C412,202.4,421.6,212,421.6,223.6z"/>
</g>
<path style="fill:#324A5E;" d="M184.8,258.4l-57.6,53.2l5.6,5.6l60.8-56.4C190.4,260.4,187.6,259.6,184.8,258.4z M162,220.8
	l-64.8,60l5.6,5.6l60-55.6C162,228.8,162,222,162,220.8z"/>
<path style="fill:#FFD05B;" d="M393.2,380h-78.8V171.2c0-21.6,17.6-39.6,39.6-39.6l0,0c21.6,0,39.6,17.6,39.6,39.6V380H393.2z"/>
<path style="fill:#324A5E;" d="M354,150.8c-11.6,0-21.2,9.6-21.2,21.2v122.8c0,11.6,9.6,21.2,21.2,21.2s21.2-9.6,21.2-21.2V171.6
	C374.8,160,365.6,150.8,354,150.8z"/>
<g>
	<path style="fill:#ACB3BA;" d="M374.8,186.8h-10c-2.8,0-5.2-2.4-5.2-5.2l0,0c0-2.8,2.4-5.2,5.2-5.2h10V186.8z"/>
	<path style="fill:#ACB3BA;" d="M374.8,207.6h-10c-2.8,0-5.2-2.4-5.2-5.2l0,0c0-2.8,2.4-5.2,5.2-5.2h10V207.6z"/>
	<path style="fill:#ACB3BA;" d="M374.8,228h-10c-2.8,0-5.2-2.4-5.2-5.2l0,0c0-2.8,2.4-5.2,5.2-5.2h10V228z"/>
	<path style="fill:#ACB3BA;" d="M374.8,248.8h-10c-2.8,0-5.2-2.4-5.2-5.2l0,0c0-2.8,2.4-5.2,5.2-5.2h10V248.8z"/>
	<path style="fill:#ACB3BA;" d="M374.8,269.2h-10c-2.8,0-5.2-2.4-5.2-5.2l0,0c0-2.8,2.4-5.2,5.2-5.2h10V269.2z"/>
	<path style="fill:#ACB3BA;" d="M374.8,290h-10c-2.8,0-5.2-2.4-5.2-5.2l0,0c0-2.8,2.4-5.2,5.2-5.2h10V290z"/>
	<path style="fill:#ACB3BA;" d="M332.8,186.8h10c2.8,0,5.2,2.4,5.2,5.2l0,0c0,2.8-2.4,5.2-5.2,5.2h-10V186.8z"/>
	<path style="fill:#ACB3BA;" d="M332.8,166.4h10c2.8,0,5.2,2.4,5.2,5.2l0,0c0,2.8-2.4,5.2-5.2,5.2h-10V166.4z"/>
	<path style="fill:#ACB3BA;" d="M332.8,207.6h10c2.8,0,5.2,2.4,5.2,5.2l0,0c0,2.8-2.4,5.2-5.2,5.2h-10V207.6z"/>
	<path style="fill:#ACB3BA;" d="M332.8,228h10c2.8,0,5.2,2.4,5.2,5.2l0,0c0,2.8-2.4,5.2-5.2,5.2h-10V228z"/>
	<path style="fill:#ACB3BA;" d="M332.8,248.8h10c2.8,0,5.2,2.4,5.2,5.2l0,0c0,2.8-2.4,5.2-5.2,5.2h-10V248.8z"/>
	<path style="fill:#ACB3BA;" d="M332.8,269.2h10c2.8,0,5.2,2.4,5.2,5.2l0,0c0,2.8-2.4,5.2-5.2,5.2h-10V269.2z"/>
	<path style="fill:#ACB3BA;" d="M332.8,290h10c2.8,0,5.2,2.4,5.2,5.2l0,0c0,2.8-2.4,5.2-5.2,5.2h-10V290z"/>
</g>
<circle style="fill:#FFD05B;" cx="199.6" cy="223.6" r="37.6"/>
<circle style="fill:#F9B54C;" cx="199.6" cy="223.6" r="21.6"/>
<polygon style="fill:#FFFFFF;" points="133.2,321.2 136.8,317.6 133.2,314 136,309.6 131.6,306.8 133.6,302 128.8,300 130,294.8 
	124.8,293.6 124.8,288.4 119.6,288.4 118.8,283.6 113.6,284.4 111.6,279.6 106.8,281.6 104,277.2 99.6,280.4 96,276.4 92.4,280 
	88,277.2 85.2,281.6 80.4,279.6 78.4,284.4 73.2,283.6 72.4,288.4 66.8,288.4 66.8,293.6 62,294.8 62.8,300 58,302 60,306.4 
	56,309.6 58.8,313.6 55.2,317.6 58.8,321.2 55.6,325.6 60,328.4 58,333.2 62.8,335.2 62,340 66.8,341.2 66.8,346.4 72,346.4 
	73.2,351.6 78.4,350.4 80.4,355.2 85.2,353.2 88,357.6 92.4,354.8 96,358.4 99.6,354.8 104,357.6 106.8,353.2 111.6,355.2 
	113.6,350.4 118.8,351.6 119.6,346.4 124.8,346.4 124.8,341.2 130,340.4 128.8,335.2 133.6,333.2 131.6,328.4 136,325.6 "/>
<circle style="fill:#54C0EB;" cx="96" cy="317.6" r="14.8"/>
<rect x="273.6" y="380" style="fill:#F9B54C;" width="147.6" height="33.2"/>
</svg>